<?xml version="1.0" encoding="UTF-8"?>
<svg width="20px" height="18px" viewBox="0 0 20 18" version="1.1" xmlns="http://www.w3.org/2000/svg" xmlns:xlink="http://www.w3.org/1999/xlink">
    <!-- Generator: Sketch 48.2 (47327) - http://www.bohemiancoding.com/sketch -->
    <title>i-fav-star copy 3</title>
    <desc>Created with Sketch.</desc>
    <defs></defs>
    <g id="Desktop" stroke="none" stroke-width="1" fill="none" fill-rule="evenodd" transform="translate(-630.000000, -2517.000000)">
        <g id="i-fav-star-copy-3" transform="translate(630.000000, 2516.000000)">
            <path d="M10,0 L10,5.33333333" id="Shape" stroke="#EFD358" stroke-width="2" opacity="0" stroke-linecap="round" stroke-dasharray="8"></path>
            <path d="M17.0713333,2.92866667 L13.3,6.7" id="Shape" stroke="#EFD358" stroke-width="2" opacity="0" stroke-linecap="round" stroke-dasharray="8"></path>
            <path d="M20,10 L14.6666667,10" id="Shape" stroke="#EFD358" stroke-width="2" opacity="0" stroke-linecap="round" stroke-dasharray="8"></path>
            <path d="M17.0713333,17.0713333 L13.3,13.3" id="Shape" stroke="#EFD358" stroke-width="2" opacity="0" stroke-linecap="round" stroke-dasharray="8"></path>
            <path d="M10,20 L10,14.6666667" id="Shape" stroke="#EFD358" stroke-width="2" opacity="0" stroke-linecap="round" stroke-dasharray="8"></path>
            <path d="M2.92866667,17.0713333 L6.7,13.3" id="Shape" stroke="#EFD358" stroke-width="2" opacity="0" stroke-linecap="round" stroke-dasharray="8"></path>
            <path d="M0,10 L5.33333333,10" id="Shape" stroke="#EFD358" stroke-width="2" opacity="0" stroke-linecap="round" stroke-dasharray="8"></path>
            <path d="M2.92866667,2.92866667 L6.7,6.7" id="Shape" stroke="#EFD358" stroke-width="2" opacity="0" stroke-linecap="round" stroke-dasharray="8"></path>
            <polygon id="Shape" fill="#EB6456" fill-rule="nonzero" points="10 1.12333333 12.884 6.96733333 19.3333333 7.90466667 14.6666667 12.4533333 15.768 18.8766667 10 15.844 4.232 18.8766667 5.33333333 12.4533333 0.666666667 7.90466667 7.116 6.96733333"></polygon>
            <polygon id="Shape" fill="#EFD358" fill-rule="nonzero" points="10.05 10 10.06545 10.0329178 10.1 10.0381975 10.075 10.063819 10.0809 10.1 10.05 10.0829178 10.0191 10.1 10.025 10.063819 10 10.0381975 10.03455 10.0329178"></polygon>
        </g>
    </g>
</svg>