<?xml version="1.0" encoding="UTF-8"?>
<svg width="12px" height="12px" viewBox="0 0 12 12" version="1.1" xmlns="http://www.w3.org/2000/svg" xmlns:xlink="http://www.w3.org/1999/xlink">
    <!-- Generator: Sketch 48.2 (47327) - http://www.bohemiancoding.com/sketch -->
    <title>logo-linkedin</title>
    <desc>Created with Sketch.</desc>
    <defs></defs>
    <g id="Desktop" stroke="none" stroke-width="1" fill="none" fill-rule="evenodd" transform="translate(-653.000000, -4084.000000)">
        <g id="logo-linkedin" transform="translate(653.000000, 4084.000000)" fill="#000000" fill-rule="nonzero">
            <path d="M10.8,0 L0.494117647,0 C0.211764706,0 0,0.225 0,0.525 L0,11.55 C0,11.775 0.211764706,12 0.494117647,12 L10.8705882,12 C11.1529412,12 11.3647059,11.775 11.3647059,11.475 L11.3647059,0.525 C11.2941176,0.225 11.0823529,0 10.8,0 Z M3.31764706,10.2 L1.69411765,10.2 L1.69411765,4.5 L3.38823529,4.5 L3.38823529,10.2 L3.31764706,10.2 Z M2.54117647,3.75 C1.97647059,3.75 1.55294118,3.225 1.55294118,2.7 C1.55294118,2.1 1.97647059,1.65 2.54117647,1.65 C3.10588235,1.65 3.52941176,2.1 3.52941176,2.7 C3.45882353,3.225 3.03529412,3.75 2.54117647,3.75 Z M9.6,10.2 L7.90588235,10.2 L7.90588235,7.425 C7.90588235,6.75 7.90588235,5.925 7.05882353,5.925 C6.21176471,5.925 6.07058824,6.675 6.07058824,7.425 L6.07058824,10.275 L4.37647059,10.275 L4.37647059,4.5 L6,4.5 L6,5.25 C6.21176471,4.8 6.77647059,4.35 7.55294118,4.35 C9.24705882,4.35 9.52941176,5.55 9.52941176,7.05 L9.52941176,10.2 L9.6,10.2 Z" id="Shape"></path>
        </g>
    </g>
</svg>